<?xml version="1.0" encoding="UTF-8"?>
<svg width="84px" height="53px" viewBox="0 0 84 53" version="1.1" xmlns="http://www.w3.org/2000/svg" xmlns:xlink="http://www.w3.org/1999/xlink">
    <!-- Generator: Sketch 51.1 (57501) - http://www.bohemiancoding.com/sketch -->
    <title>piktogram</title>
    <desc>Created with Sketch.</desc>
    <defs></defs>
    <g id="piktogram" stroke="none" stroke-width="1" fill="none" fill-rule="evenodd">
        <g fill="#000000">
            <path d="M26.3076699,44.0356472 C16.4652332,44.0356472 8.4573279,36.048418 8.4573279,26.2310432 C8.4573279,16.4142949 16.4652332,8.42706565 26.3076699,8.42706565 C36.1501067,8.42706565 44.158012,16.4142949 44.158012,26.2310432 C44.158012,36.048418 36.1501067,44.0356472 26.3076699,44.0356472 M26.3076699,0 C11.8018392,0 0.00018796429,11.7671911 0.00018796429,26.2310432 C0.00018796429,40.6948952 11.8018392,52.4620863 26.3076699,52.4620863 C40.8135007,52.4620863 52.6151519,40.6948952 52.6151519,26.2310432 C52.6151519,11.7671911 40.8135007,0 26.3076699,0" id="Fill-12"></path>
            <path d="M62.5699913,18.1123642 C63.7704565,20.6555211 64.3995104,23.4305005 64.3995104,26.2311685 C64.3995104,29.1828344 63.7040425,32.0937747 62.3776412,34.7421915 C66.2916842,33.9828158 69.2602669,30.5280321 69.2602669,26.4059753 C69.2602669,22.3171254 66.426392,18.9337682 62.5699913,18.1123642" id="Fill-13"></path>
            <path d="M61.3098787,26.2310432 C61.3098787,19.6303639 57.1583741,13.6512198 51.07397,11.2809901 C53.8207548,15.7890003 55.2662002,20.9304502 55.2662002,26.2310432 C55.2662002,31.5316361 53.8207548,36.6737125 51.07397,41.1810962 C57.1583741,38.8108665 61.3098787,32.8317225 61.3098787,26.2310432" id="Fill-14"></path>
            <path d="M35.0772065,13.8619278 C31.3567667,16.9276253 29.2296375,21.4168391 29.2296375,26.2312311 C29.2296375,31.0449966 31.3567667,35.5348369 35.0772065,38.6005345 C36.7663789,37.4050816 38.2187163,35.8430983 39.3057765,34.0555579 C36.9888033,32.1984708 35.616664,29.3689817 35.616664,26.4060379 C35.616664,23.3660288 37.0439395,20.4914283 39.4536417,18.6362207 C38.3578099,16.759084 36.8540956,15.1187823 35.0772065,13.8619278" id="Fill-15"></path>
        </g>
    </g>
</svg>